<svg width="60" height="60" viewBox="0 0 60 60" fill="none" xmlns="http://www.w3.org/2000/svg">
<path fill-rule="evenodd" clip-rule="evenodd" d="M0 30C0 13.4315 13.4315 0 30 0C46.5685 0 60 13.4315 60 30C60 46.5685 46.5685 60 30 60C13.4315 60 0 46.5685 0 30ZM15.375 24.9375V45H21.75V24.9375H15.375ZM15 18.5625C15 20.625 16.5 22.125 18.5625 22.125C20.625 22.125 22.125 20.625 22.125 18.5625C22.125 16.5 20.625 15 18.5625 15C16.6875 15 15 16.5 15 18.5625ZM38.625 45H44.625V32.625C44.625 26.4375 40.875 24.375 37.3125 24.375C34.125 24.375 31.875 26.4375 31.3125 27.75V24.9375H25.3125V45H31.6875V34.3125C31.6875 31.5 33.5625 30 35.4375 30C37.3125 30 38.625 30.9375 38.625 34.125V45Z" fill="white"/>
</svg>
